<?xml version="1.0" encoding="UTF-8"?>
<svg id="Layer_1" xmlns="http://www.w3.org/2000/svg" version="1.1" viewBox="0 0 3000 1676">
  <!-- Generator: Adobe Illustrator 29.5.1, SVG Export Plug-In . SVG Version: 2.1.0 Build 141)  -->
  <defs>
    <style>
      .st0 {
        font-family: AlethiaPro-Regular, 'Alethia Pro';
        font-size: 220px;
        letter-spacing: .19em;
      }
    </style>
  </defs>
  <g>
    <path d="M1437.61,940.46c-25.15,10.89-49.05,19.35-73.7,23.49-5.63,21.54-10.73,42.38-16.54,63.01-11.59,41.16-26.91,80.85-47.77,118.3-16.6,29.79-37,56.5-62.83,78.95-20.9,18.17-44.89,29.07-72.54,31.78-11.79,1.16-23.31-.1-34.75-2.98-25.86-6.5-50.35-16.24-73.82-29-21.78-11.85-31.2-30.26-32.34-54.05-1.31-27.39,2.44-54.24,9.26-80.66,21.04-81.57,53.9-157.62,105.84-224.66,20.22-26.09,42.58-50.05,69.21-69.8,14.09-10.45,29.18-18.65,46.55-22.45,9.34-2.04,17.88-1.29,26.71,2.54,29.75,12.92,51.08,33.37,60.08,65.22,4.64,16.43,3.73,33.11,1.49,50.19,8.37,6.08,17.98,8.81,28.06,9.81,19.18,1.92,37.86-1.04,55.95-7.32,11.01-3.82,21.66-8.67,32.54-12.9,5.57-2.17,9.17-5.88,12.12-11.18,17.41-31.25,37.11-60.97,60.34-88.28,17.48-20.55,36.64-39.26,58.54-55.1,15.59-11.28,32.5-19.45,51.9-21.53,2.76-.3,5.82-.53,8.36.32,38.52,12.92,65.14,37.32,72.05,78.7,2.15,12.86.33,26.38.33,40.81,8.86,6.31,20.13,9.09,31.8,9.72,21.5,1.16,41.98-3.98,62.03-11.27,3.92-1.43,4.72-4.31,5.54-7.92,35.03-152.96,95.87-295.8,170.87-432.96,13.15-24.05,29.21-46.52,43.79-69.8,13.75-21.95,34.57-30.36,59.33-31.38,12.68-.52,25.14.77,37.63,3.36,33.21,6.9,43.24,29.7,46.59,51.58,4.47,29.21,1.03,57.95-4.93,86.55-12.1,58.12-33.94,112.94-56.44,167.58-37.01,89.86-90.74,168.92-154.69,241.47-17.76,20.15-35.64,40.2-53.46,60.3-2.94,3.31-5.98,6.53-8.74,9.98-18.73,23.41-15.96,15.52-15.16,45.21.72,26.71,6.28,52.69,16.5,77.43,3.47,8.39,7.84,16.65,13.16,23.97,11.69,16.07,28.22,20.92,47.01,16.16,8.41-2.13,16.53-6.24,24.1-10.64,14.03-8.16,25.86-19.2,36.68-31.23,37.45-41.63,67.94-87.92,92-138.44,2.15-4.52,3.52-9.44,5.04-14.25,18.61-58.98,42.1-115.7,77.03-167.17,24.07-35.47,50.9-68.46,84.82-95.14,14.5-11.4,29.96-20.76,47.99-25.95,19.78-5.69,35.86.43,50.55,13.15,4.77,4.13,9.61,8.18,14.48,12.19,5.97,4.92,12,9.77,18.54,15.1,1.06-1.59,3.05-3.94,4.35-6.61,3.64-7.45,9.73-11.46,17.56-13.08,20.66-4.29,40.84-3.04,60.21,5.84,3.13,1.43,6.19,3.26,8.84,5.44,7.18,5.87,7.2,10.89,2.55,18.74-7.23,12.19-14.59,24.46-20.21,37.42-25.77,59.41-43.12,121.25-52.01,185.45-3.34,24.12-6.13,48.27-5.34,72.68.44,13.65,2.49,27.05,7.34,39.88,9.24,24.43,26.69,31.22,49.61,18.79,7.16-3.88,13.83-8.87,20.18-14.02,14.81-12.02,27.31-26.31,38.55-41.64,32.7-44.59,56.44-93.4,68.58-147.55,2.04-9.11,5.23-16.79,15.3-19.68,9.03-2.6,16.84-.78,23.78,5.28,6.82,5.96,7.62,13.58,5.29,21.68-3.4,11.83-6.84,23.66-10.78,35.32-14.71,43.52-32.64,85.53-58.35,123.91-18.25,27.24-39.62,51.57-65.31,72.05-28.16,22.45-60.14,32.72-96.11,30.53-28.24-1.72-49.83-14.4-64.67-38.65-9.61-15.7-13.99-33.02-16.89-50.89-1.3-8.02-2.69-16.04-4.32-25.77-2.4,4.04-3.95,6.66-5.51,9.28-7.44,12.46-14.24,25.37-22.45,37.3-26.92,39.14-64.42,62.52-110.78,71.67-18.34,3.62-35.77,1.59-50.9-11.21-6.97-5.89-14.76-10.87-22.45-15.84-11.09-7.16-18.71-16.8-22.59-29.41-.35-1.12-.91-2.18-2.05-4.84-2.63,3.6-4.63,6.21-6.49,8.9-19.71,28.47-42.34,54.29-69.07,76.43-17.24,14.27-35.89,26.14-58.07,30.69-28.61,5.87-57.19,5.28-85.18-3.82-25.94-8.43-44.29-26.16-58.06-49.05-11.76-19.55-17.55-41.12-20.86-63.47-5.28-35.64-3.57-71.2,1.26-106.72.26-1.88.47-3.76.61-5.65.07-.91-.09-1.84-.17-3.09-22.24,6.81-44.31,13.57-67.48,20.66-3.1,12.65-6.33,26.75-10.02,40.74-12.99,49.32-29.79,97.17-55.12,141.72-16.54,29.1-36.75,55.18-62.25,77.01-17.9,15.32-38.15,25.75-61.56,29.52-13.19,2.12-26.39,2.55-39.56-.4-27.3-6.1-52.96-16.25-77.7-29.34-22.92-12.14-32.79-31.18-33.76-56.15-1.1-28.37,2.86-56.17,10.44-83.35,6.27-22.47,13.99-44.54,21.07-66.78.92-2.88,1.85-5.76,3.47-10.78ZM2380.94,689.78c0-4.11.33-8.24-.06-12.31-1-10.37-1.96-20.82-7.09-30.21-5.44-9.97-13.55-13.21-23.84-8.5-5.93,2.71-11.78,6.41-16.43,10.94-8.57,8.35-16.76,17.22-24.14,26.63-23.72,30.25-41.75,63.93-57.81,98.7-24.47,52.98-43.37,107.75-51.45,165.79-2.23,15.98-2.93,32.22,2.92,47.77,5.23,13.89,13.3,17.19,26.78,11.43,3.47-1.48,7.1-3.06,9.93-5.45,9.4-7.91,19.21-15.53,27.52-24.49,19.45-20.96,34.9-44.83,47.58-70.44,22.03-44.51,39.88-90.71,54.22-138.22,7.04-23.3,12.3-47.05,11.85-71.63ZM1602.33,809.07c-4.43,6.72-8.55,12.51-12.19,18.6-39.12,65.37-66.02,135.48-80.87,210.16-4.13,20.77-6.31,41.85-4.52,63.13.72,8.62,2.82,16.82,8,23.94,3.57,4.9,8,7.51,14.55,6.72,12.08-1.46,23.46-4.88,34.2-10.49,15.31-8.01,28.16-19.16,39.85-31.72,18.02-19.36,31.89-41.56,43.72-65.06,19.26-38.26,32.56-78.67,42.72-120.18.49-2.01.52-4.13.79-6.45-2.07-.61-3.56-1.03-5.04-1.48-1.81-.55-3.66-1-5.41-1.71-38.79-15.67-69.03-39.02-75.8-85.45ZM1309.63,965.95c-1.27-.89-1.49-1.15-1.77-1.23-2.41-.75-4.86-1.39-7.24-2.2-26.49-9.03-48.25-24.52-64.33-47.58-6.59-9.46-11.01-19.84-11.87-31.51-.15-1.97-.4-3.93-.81-7.86-4.35,6.44-7.69,10.97-10.61,15.76-40.54,66.38-68.04,137.88-83.19,214.09-4.19,21.07-6.46,42.45-4.36,64.03.81,8.28,2.93,16.16,8.03,22.93,3.87,5.14,8.5,7.48,15.5,6.51,20.02-2.76,37.34-11.1,52.94-23.54,16.45-13.11,30-28.84,41.77-46.19,19.27-28.4,33.41-59.32,44.93-91.52,8.39-23.46,15.55-47.28,21.01-71.7ZM1930.11,780.72c2.34-3.01,4.68-5.92,6.91-8.91,26.13-35,49-72.08,70.68-109.94,31.57-55.13,58.62-112.57,86.67-169.51,11.34-23.03,20.53-46.83,28.16-71.26,7.16-22.93,13.67-46.05,14.93-70.22.31-5.92.08-12.1-1.33-17.81-2.19-8.9-10.08-11.57-17.6-6.38-3.33,2.3-6.38,5.24-8.91,8.41-4.72,5.92-9.54,11.89-13.3,18.42-13.39,23.25-27.02,46.4-39.35,70.22-56.93,110.01-98.6,226.17-137.4,343.45-.67,2.03-.96,4.19-1.4,6.17,4.05,2.49,7.7,4.74,11.95,7.36Z"/>
    <path d="M550.13,1062.76c1.17-1.98,2.23-3.52,3.03-5.19,42.59-89.19,85.46-178.26,127.64-267.65,29.11-61.68,57.74-123.6,81.56-187.59,1.87-5.03,4.01-10,5.39-15.16,1.84-6.88,5.87-11.68,11.99-15.04,21.29-11.68,43.48-18.58,68.13-13.62,17.87,3.59,22.98,16.69,20.9,31.12-6.24,43.12-11.73,86.37-16.31,129.7-4.39,41.45-7.58,83.04-10.71,124.62-1.92,25.51-3.08,51.1-3.98,76.67-2.96,84-5.65,168.01-8.43,252.02-.57,17.37-1.08,34.74-1.6,52.11-.06,2.09,0,4.19,1.46,6.5,1.05-3.82,2.07-7.64,3.15-11.45,20.27-71.68,40.34-143.42,60.87-215.03,22.01-76.77,44.99-153.27,62.5-231.25,9.96-44.39,18.8-88.99,22.95-134.36,1.87-20.46,2.51-41.04-.58-61.48-4.65-30.77-19.84-46.26-50.44-51.99-3.1-.58-6.22-.99-10.03-1.59.64-1.13.92-2.35,1.69-2.9,20.38-14.47,41.25-28.08,64.7-37.25,12.5-4.89,25.29-7.74,38.83-7.08,16.73.81,29.55,8.06,38.5,22.24,10.2,16.15,14.46,34.18,16.81,52.81,4.09,32.35.43,64.38-4.88,96.21-16.69,99.91-44.7,196.95-75.77,293.15-42.02,130.11-88.2,258.77-136.07,386.83-4.16,11.12-11.49,18.65-22.16,23.27-13.53,5.85-27.83,8.34-42.42,8.93-17.82.73-35.42-1.38-52.29-7.19-7.05-2.43-13.62-6.47-20.04-10.37-4.85-2.95-6.7-7.61-6.66-13.66.38-59.41.15-118.82.75-178.23.56-55.93,1.68-111.86,2.97-167.77,1.42-61.29,3.33-122.56,4.98-183.84.19-6.93.03-13.87.03-22.18-1.27,2.2-2.23,3.34-2.64,4.65-20.55,65.9-49.62,128.34-77.48,191.27-27.87,62.94-56.18,125.7-82.95,189.11-12.13,28.73-21.53,58.66-31.05,88.4-3.24,10.12-8.87,16.93-18.02,20.3-9.69,3.57-19.9,6.33-30.12,7.76-15.71,2.19-31.61,2.08-46.88-3.21-5.91-2.05-11.82-4.68-17-8.13-9.24-6.17-12.71-15.27-10.97-26.34,9.65-61.13,19.8-122.18,28.74-183.41,7.39-50.61,13.88-101.38,19.77-152.19,6.11-52.7,11.61-105.49,16.28-158.34,4.03-45.62,6.53-91.38,9.68-137.08.1-1.48-.12-2.98-.22-5-1.71.56-2.95.77-4,1.34-52.41,28.63-92.71,68.57-115.6,124.54-7.83,19.16-12.3,39.11-12.49,59.92-.13,14.08,2.28,27.65,7.69,40.67.71,1.71,1.27,3.48,2.41,6.64-5.24-.83-9.47-1.41-13.65-2.19-12.79-2.37-25.2-5.89-36.63-12.33-11.77-6.64-18.29-16.3-20.52-29.99-3.74-22.91.9-43.94,11.35-64.09,13.04-25.13,29.93-47.56,48.99-68.38,40.93-44.7,88.59-80.83,141.47-110.19,4.53-2.51,10.02-3.98,15.2-4.51,17.75-1.81,35.38-.72,52.49,4.73,4.77,1.52,9.43,3.65,13.83,6.05,5.64,3.08,8.31,7.83,8.53,14.66,1.83,56.24,2.16,112.47.08,168.71-1.91,51.47-5.4,102.83-10.59,154.09-5.64,55.64-13.36,110.97-22.64,166.11-.08.49.21,1.05.45,2.14Z"/>
  </g>
  <text class="st0" transform="translate(2198.49 1360.43)"><tspan x="0" y="0">.CA</tspan></text>
</svg>